<?xml version="1.0" encoding="UTF-8"?>
<svg version="1.1" xmlns="http://www.w3.org/2000/svg" width="1080" height="1080">
<path d="M0 0 C356.4 0 712.8 0 1080 0 C1080 356.4 1080 712.8 1080 1080 C723.6 1080 367.2 1080 0 1080 C0 723.6 0 367.2 0 0 Z " fill="#FEFEFE" transform="translate(0,0)"/>
<path d="M0 0 C4.41031084 3.60025374 8.19601097 7.23440979 11.82421875 11.61328125 C13.59722076 13.55817215 15.36355562 15.24744361 17.33203125 16.98046875 C17.92419434 17.51921631 18.51635742 18.05796387 19.12646484 18.61303711 C20.30501848 19.67831106 21.50664857 20.71876977 22.73291016 21.72875977 C25.23876212 24.03562407 26.85030737 25.85400393 27.30133057 29.30688477 C27.10666363 39.03891799 26.38972325 48.71945176 25.64453125 58.421875 C25.50082799 60.3375479 25.35756913 62.25325418 25.21472168 64.16899109 C24.91022265 68.24320445 24.60319343 72.31721556 24.2940979 76.39108276 C23.55970855 86.07432774 22.83922233 95.75861167 22.11812401 105.44285393 C21.95571278 107.62338328 21.79314629 109.80390108 21.63042641 111.98440742 C20.18166723 131.40065393 18.79730843 150.82074453 17.46311569 170.24517441 C17.21361945 173.87678138 16.96330563 177.50833203 16.71313477 181.13989258 C16.42344009 185.3463564 16.13385607 189.55282776 15.84461975 193.75932312 C14.91615359 207.25522376 13.97054884 220.74988061 13.01205444 234.24368286 C12.84000492 236.66882574 12.66861713 239.09401567 12.49795532 241.51925659 C12.26602206 244.81374666 12.03178325 248.10806465 11.796875 251.40234375 C11.73044296 252.35185913 11.66401093 253.30137451 11.5955658 254.27966309 C11.19338362 259.87248225 10.6533288 265.43076168 10 271 C10.7528125 270.97679687 11.505625 270.95359375 12.28125 270.9296875 C18.79706876 270.81898184 25.01774121 271.13872238 31.46875 272.0078125 C32.19803711 272.10263916 32.92732422 272.19746582 33.67871094 272.29516602 C35.45296147 272.52640031 37.22655502 272.76266661 39 273 C39.85573539 261.08344564 40.70971966 249.16676619 41.5625 237.25 C41.62806595 236.33378876 41.6936319 235.41757751 41.76118469 234.47360229 C44.49877823 196.21006718 47.18619069 157.94307237 49.85450649 119.67464828 C50.19856239 114.74177756 50.54374802 109.80899217 50.89183044 104.87640381 C51.6939657 93.50089033 51.6939657 93.50089033 52.44132614 82.12168121 C52.57097658 80.07423201 52.70390411 78.02702389 52.83795166 75.9798584 C52.99226615 73.60345453 53.13977635 71.22659364 53.27874756 68.84924316 C53.34563782 67.83744995 53.41252808 66.82565674 53.48144531 65.78320312 C53.56039032 64.49113953 53.56039032 64.49113953 53.64093018 63.17297363 C54 61 54 61 56 58 C58.69181275 60.662342 61.37762147 63.33066667 64.0625 66 C64.81466797 66.74378906 65.56683594 67.48757812 66.34179688 68.25390625 C70.62964934 72.52319658 74.74475128 76.8760911 78.68530273 81.46875 C79.43009627 82.33622355 80.19153609 83.19153609 81 84 C80.91209618 95.36567449 79.22457119 106.63985718 77.58959961 117.86364746 C77.1755904 120.70678718 76.76939712 123.55095255 76.36523438 126.39550781 C75.82392254 130.20501543 75.28063448 134.0142312 74.73583984 137.82324219 C73.78930308 144.46093514 72.88340452 151.1035908 72 157.75 C71.77111084 159.47101929 71.77111084 159.47101929 71.53759766 161.22680664 C69.8713566 173.84930452 68.28034371 186.48150938 66.67489624 199.11184692 C63.36816205 225.1065894 60.04662843 251.10815792 56 277 C56.66 277.11214844 57.32 277.22429687 58 277.33984375 C80.44804284 281.81191478 102.57686862 292.02427352 122 304 C126.09576614 300.26386211 129.14532887 295.8460241 132.375 291.375 C137.17347855 284.79577938 142.04401198 278.28809942 147.0625 271.875 C147.64104736 271.13564209 148.21959473 270.39628418 148.81567383 269.63452148 C149.39212646 268.89790283 149.9685791 268.16128418 150.5625 267.40234375 C153.92620919 263.1037436 157.25079939 258.77624701 160.5625 254.4375 C161.09713867 253.73705566 161.63177734 253.03661133 162.18261719 252.31494141 C163.25669481 250.90720447 164.33058877 249.49932739 165.40429688 248.09130859 C167.50697215 245.33556863 169.61373381 242.58296658 171.72045898 239.83032227 C177.84436742 231.82820238 183.95278297 223.81434311 190.05786133 215.79785156 C194.19930972 210.3606796 198.3464977 204.92796794 202.5 199.5 C204.09530834 197.41380845 205.69048705 195.32751784 207.28564453 193.24121094 C208.48662085 191.67115076 209.68816643 190.10152593 210.89013672 188.53222656 C212.90754127 185.897716 214.92308148 183.26179442 216.9375 180.625 C217.60410645 179.75262695 218.27071289 178.88025391 218.95751953 177.98144531 C224.2882423 170.98317637 229.51286853 163.91035293 234.65991211 156.77587891 C235.20268799 156.02999512 235.74546387 155.28411133 236.3046875 154.515625 C236.77890137 153.85852539 237.25311523 153.20142578 237.74169922 152.52441406 C239 151 239 151 241 150 C243.77160626 149.91316555 246.51774765 149.8844421 249.2890625 149.90234375 C250.51669815 149.90446617 250.51669815 149.90446617 251.76913452 149.90663147 C254.38779325 149.9122371 257.00636704 149.92479052 259.625 149.9375 C261.39843627 149.94251428 263.17187387 149.94707731 264.9453125 149.95117188 C269.29690782 149.96220836 273.6484395 149.97947675 278 150 C274.73319159 154.44849305 271.45080353 158.76570844 267.6875 162.8125 C264.5452813 166.24848206 261.54315664 169.74688038 258.625 173.375 C254.94428153 177.92780507 251.07351352 182.23417411 247.08862305 186.5168457 C243.28614986 190.62760957 239.75736701 194.92266523 236.24609375 199.28515625 C233.9116941 202.10673495 231.48009402 204.80590712 229 207.5 C225.70668301 211.07792463 222.55348679 214.71539666 219.5 218.5 C215.66280969 223.25595419 211.60614899 227.75504801 207.46875 232.25 C205.05621896 234.93737634 202.7674379 237.68965444 200.5 240.5 C196.66164586 245.25739668 192.60377641 249.75783918 188.46484375 254.25390625 C186.07292703 256.91875166 183.80745116 259.64831825 181.5625 262.4375 C177.90493736 266.97236161 174.05382973 271.25536183 170.08837891 275.51708984 C166.28601193 279.62779276 162.75729408 283.92275584 159.24609375 288.28515625 C156.9116941 291.10673495 154.48009402 293.80590712 152 296.5 C143.63119741 305.13292876 143.63119741 305.13292876 137 315 C137.77150391 315.32677734 137.77150391 315.32677734 138.55859375 315.66015625 C142.01792253 317.55863589 144.98159465 319.98365327 148.0625 322.4375 C148.68705078 322.92798828 149.31160156 323.41847656 149.95507812 323.92382812 C154.6765845 327.65769816 154.6765845 327.65769816 156.51342773 329.60180664 C158.06123746 331.25353175 158.06123746 331.25353175 161 332 C161.24621094 331.43410156 161.49242187 330.86820312 161.74609375 330.28515625 C163.21536224 327.60751742 164.97752435 325.66956388 167.0625 323.4375 C170.29198338 319.91957792 173.38460518 316.34817625 176.375 312.625 C180.05571847 308.07219493 183.92648648 303.76582589 187.91137695 299.4831543 C191.71385014 295.37239043 195.24263299 291.07733477 198.75390625 286.71484375 C201.88167179 282.93432714 205.21273883 279.35519125 208.53515625 275.74609375 C210.92707297 273.08124834 213.19254884 270.35168175 215.4375 267.5625 C219.09506264 263.02763839 222.94617027 258.74463817 226.91162109 254.48291016 C230.71398807 250.37220724 234.24270592 246.07724416 237.75390625 241.71484375 C240.0883059 238.89326505 242.51990598 236.19409288 245 233.5 C248.29331699 229.92207537 251.44651321 226.28460334 254.5 222.5 C258.33835414 217.74260332 262.39622359 213.24216082 266.53515625 208.74609375 C268.92707297 206.08124834 271.19254884 203.35168175 273.4375 200.5625 C276.65943317 196.56775746 280.00657611 192.75447891 283.5 189 C287.80996438 184.3675162 291.85061168 179.57877767 295.8203125 174.6484375 C298.67480436 171.18007642 301.69669098 167.88095752 304.72265625 164.5625 C307.98727981 160.88909853 311.07021984 157.07683463 314.15234375 153.25 C317.57423463 149.08296163 317.57423463 149.08296163 320.125 148.5859375 C332.39742495 147.68551502 344.70235352 147.91049748 357 148 C357.32462854 153.33389669 357.55864021 158.66190866 357.71411133 164.00341797 C357.77897068 165.81400775 357.86730958 167.62393042 357.98071289 169.43212891 C358.94609744 185.23647862 358.94609744 185.23647862 354.24609375 190.78076172 C351.58847069 193.41943641 348.72503307 195.68352007 345.65930176 197.82809448 C343.11843362 199.62261882 340.76165295 201.63251296 338.375 203.625 C337.48554687 204.33914063 336.59609375 205.05328125 335.6796875 205.7890625 C332.86746685 208.1093495 330.18202737 210.53071134 327.5 213 C323.05272888 217.09351091 318.45282537 220.92442499 313.75 224.71875 C309.96094593 227.86194258 306.36730648 231.20158595 302.74609375 234.53515625 C300.08124834 236.92707297 297.35168175 239.19254884 294.5625 241.4375 C290.56776014 244.65943101 286.75445651 248.00655495 283 251.5 C278.38995664 255.78955113 273.62217044 259.80410672 268.71484375 263.75390625 C265.89326505 266.0883059 263.19409288 268.51990598 260.5 271 C256.05272888 275.09351091 251.45282537 278.92442499 246.75 282.71875 C242.96094593 285.86194258 239.36730648 289.20158595 235.74609375 292.53515625 C233.08124834 294.92707297 230.35168175 297.19254884 227.5625 299.4375 C223.56776014 302.65943101 219.75445651 306.00655495 216 309.5 C211.38995664 313.78955113 206.62217044 317.80410672 201.71484375 321.75390625 C198.89326505 324.0883059 196.19409288 326.51990598 193.5 329 C178.9726228 342.33934205 178.9726228 342.33934205 173 345 C173.8353125 346.01707031 173.8353125 346.01707031 174.6875 347.0546875 C179.29256956 352.67100544 183.86173337 358.3102694 188.37109375 364.00390625 C189.99441475 366.0615997 189.99441475 366.0615997 192 368 C197.64792023 363.47729405 203.17642106 358.90107268 208.5 354 C212.05670244 350.72581577 215.67161811 347.59357567 219.4375 344.5625 C223.43223986 341.34056899 227.24554349 337.99344505 231 334.5 C235.61004336 330.21044887 240.37782956 326.19589328 245.28515625 322.24609375 C248.10673495 319.9116941 250.80590712 317.48009402 253.5 315 C257.94727112 310.90648909 262.54717463 307.07557501 267.25 303.28125 C271.03905407 300.13805742 274.63269352 296.79841405 278.25390625 293.46484375 C280.91875166 291.07292703 283.64831825 288.80745116 286.4375 286.5625 C290.43223986 283.34056899 294.24554349 279.99344505 298 276.5 C302.61004336 272.21044887 307.37782956 268.19589328 312.28515625 264.24609375 C315.10673495 261.9116941 317.80590712 259.48009402 320.5 257 C324.94326129 252.91017995 329.53775807 249.0815502 334.23828125 245.29296875 C338.02167227 242.15173745 341.6129899 238.82016654 345.19921875 235.45703125 C348.65257112 232.42752129 352.29403824 229.71045118 356 227 C356.04841292 232.33808352 356.06129051 237.67354872 356.015625 243.01171875 C355.98549288 246.65249046 356.04363524 250.25912228 356.234375 253.89453125 C356.41957385 259.61811735 356.50018064 264.21466106 352.63671875 268.8125 C349.82225589 270.99957948 347.01014876 272.89849532 343.97265625 274.74707031 C340.47240274 276.97025113 337.26356116 279.57279679 334 282.125 C332.55873995 283.22975658 331.11598445 284.33256445 329.671875 285.43359375 C328.54555664 286.29380127 328.54555664 286.29380127 327.39648438 287.17138672 C322.10665788 291.20773559 316.81149434 295.2370841 311.51757812 299.26806641 C306.83624772 302.83409822 302.16110127 306.40757091 297.5 310 C291.02254388 314.99233989 284.51545817 319.94547988 278.00878906 324.8996582 C272.41820858 329.15664604 266.83114207 333.41814528 261.25 337.6875 C260.56526611 338.21118164 259.88053223 338.73486328 259.17504883 339.27441406 C255.69199864 341.93877217 252.21044215 344.60506199 248.73046875 347.2734375 C241.86841529 352.53213452 234.99105785 357.7666649 228.0625 362.9375 C219.27568072 369.49689325 210.63387987 376.24121554 202 383 C202.4125 383.825 202.825 384.65 203.25 385.5 C204.15120472 387.30240945 205.05216942 389.10494266 205.94921875 390.90942383 C207.60280042 394.23088444 209.27504565 397.5391954 211 400.82421875 C216.25325908 410.91350592 220.34291607 421.23417551 224 432 C224.2273584 432.66821777 224.4547168 433.33643555 224.68896484 434.02490234 C226.52105702 439.48456521 228.09737333 444.21928987 228 450 C228.63444031 449.89977539 229.26888062 449.79955078 229.92254639 449.69628906 C247.66960982 446.90343317 265.44421709 444.38681459 283.25 442 C285.89219516 441.64413786 288.5343677 441.28811152 291.17651367 440.93188477 C297.41431718 440.09148492 303.65248623 439.25383954 309.89080811 438.41729736 C313.79336785 437.89351886 317.69552936 437.36683662 321.59765625 436.83984375 C337.84960474 434.65142422 354.11285292 432.54850009 370.375 430.4375 C372.08691025 430.21512161 372.08691025 430.21512161 373.83340454 429.98825073 C374.95097137 429.84316071 376.06853821 429.69807068 377.2199707 429.54858398 C378.32760269 429.40437515 379.43523468 429.26016632 380.57643127 429.11158752 C382.78103217 428.82755571 384.98631012 428.54872784 387.19224548 428.2752533 C392.73808692 427.58352477 398.24867853 426.80866549 403.75878906 425.87158203 C404.8462442 425.69990005 405.93369934 425.52821808 407.05410767 425.35133362 C409.11017927 425.02489974 411.16178967 424.66838913 413.20639038 424.276474 C419.89392744 423.26076339 419.89392744 423.26076339 423.0927124 425.39865112 C424.87498838 427.17995697 426.41791655 429.04166701 428 431 C429.20714054 432.08745973 430.43434521 433.15340135 431.6875 434.1875 C435.44956663 437.43014915 438.98360148 440.87100682 442.5 444.375 C443.04100342 444.9114917 443.58200684 445.4479834 444.1394043 446.00073242 C448 449.8762411 448 449.8762411 448 451 C421.26207745 453.22265123 394.52011385 455.28288139 367.74758911 457.04272461 C350.09257842 458.20642503 332.44772044 459.47624247 314.8046875 460.80859375 C312.67163136 460.96935167 310.53857471 461.130103 308.40551758 461.29084778 C298.82248466 462.01378822 289.23975186 462.74030336 279.65779686 463.47740269 C275.64348254 463.78526612 271.62887717 464.08920644 267.61420059 464.39230537 C265.73829715 464.53486361 263.86252562 464.67917052 261.98690414 464.82539177 C251.96632602 465.60608986 242.05807614 466.22880363 232 466 C232.09982178 466.65460205 232.19964355 467.3092041 232.30249023 467.98364258 C232.70824656 470.65480174 233.10392543 473.32738869 233.5 476 C233.64308594 476.93457031 233.78617188 477.86914062 233.93359375 478.83203125 C234.13662109 480.21455078 234.13662109 480.21455078 234.34375 481.625 C234.46943359 482.46289062 234.59511719 483.30078125 234.72460938 484.1640625 C235.07724701 487.79547985 235.04083869 491.3517441 235 495 C262.54326429 493.43517467 290.05720428 491.59290659 317.56259918 489.46546555 C342.68583236 487.52269303 367.81758075 485.748666 392.95901489 484.05831909 C414.19593408 482.64119427 414.19593408 482.64119427 435.41796875 481.01953125 C436.31168182 480.94657837 437.2053949 480.87362549 438.12619019 480.79846191 C441.96006089 480.48264315 445.79265558 480.15684629 449.62402344 479.81201172 C453.41459408 479.48744709 457.20271175 479.23188993 461 479 C461.7425 478.9385379 462.485 478.87707581 463.25 478.81375122 C476.65162524 477.75672016 476.65162524 477.75672016 481.9831543 480.5793457 C484.48366077 482.75187573 486.53783402 484.99260177 488.625 487.5625 C490.05242918 489.16997696 491.48209581 490.77547005 492.9140625 492.37890625 C493.5834082 493.16023926 494.25275391 493.94157227 494.94238281 494.74658203 C497.581154 497.63645603 500.48415205 500.07686636 503.54443359 502.50756836 C505 504 505 504 505 507 C503.54223633 508.53198242 503.54223633 508.53198242 501.51953125 510.16796875 C496.97533688 513.97532085 492.8375521 518.08407109 488.6875 522.3125 C487.29793562 523.72758439 485.906103 525.14044599 484.51171875 526.55078125 C483.90803467 527.16606689 483.30435059 527.78135254 482.68237305 528.4152832 C477.9377876 532.88446099 474.03711949 532.21762892 467.82803345 532.12631226 C462.12310462 531.93806875 456.44994777 531.54869573 450.76171875 531.08203125 C448.89342155 530.93606758 448.89342155 530.93606758 446.98738098 530.78715515 C444.29672865 530.57674524 441.6062855 530.36457202 438.91601562 530.14941406 C431.54279477 529.56042674 424.16785383 528.9934797 416.79296875 528.42578125 C415.64106615 528.3368907 415.64106615 528.3368907 414.46589279 528.24620438 C397.57749799 526.94481485 380.68014502 525.78867803 363.77991104 524.65320969 C336.59664335 522.8264981 309.42602301 520.87186177 282.26279449 518.76739502 C279.01899886 518.51612329 275.77512997 518.26580536 272.53125 518.015625 C271.32496948 517.92240967 270.11868896 517.82919434 268.87585449 517.7331543 C261.04290595 517.13519419 253.21131842 516.62570434 245.36523438 516.23730469 C241.87480271 515.99117152 238.45686231 515.53564799 235 515 C235.0309375 516.25683594 235.061875 517.51367188 235.09375 518.80859375 C235.09375 524.31630882 234.33945614 529.6287231 233.5 535.0625 C233.28537109 536.50399414 233.28537109 536.50399414 233.06640625 537.97460938 C232.71674414 540.3173455 232.3611856 542.65901777 232 545 C233.23544556 544.96302002 233.23544556 544.96302002 234.49584961 544.92529297 C247.88585392 544.71608789 261.14789151 545.88367669 274.48574448 546.9585762 C281.08058435 547.4870632 287.67710035 547.99452009 294.2734375 548.50390625 C295.0493115 548.56399054 295.82518551 548.62407482 296.62457085 548.68597984 C309.75820916 549.70109532 322.89665623 550.63337082 336.0390625 551.52734375 C336.97072361 551.59072811 337.90238472 551.65411247 338.86227798 551.71941757 C343.58413276 552.04031971 348.3060562 552.36019995 353.02801514 552.67956543 C384.71371582 554.82280877 416.37538911 557.06833515 448 560 C442.04957361 567.01882606 435.86316347 573.4079076 428.828125 579.35546875 C426.78960249 581.10236432 426.78960249 581.10236432 424.625 583.9375 C419.71867514 587.79246954 412.74861152 586.15806957 406.80541992 585.45263672 C404.94617604 585.20176249 403.08788221 584.94377251 401.23046875 584.6796875 C400.21314667 584.5406752 399.19582458 584.4016629 398.14767456 584.25843811 C394.8267492 583.8033609 391.5071723 583.33912135 388.1875 582.875 C385.85028003 582.55338302 383.51295741 582.23251127 381.17553711 581.91235352 C376.40866526 581.25903399 371.64219309 580.60290655 366.87597656 579.94482422 C357.85599073 578.70211321 348.83081785 577.49916183 339.80474854 576.30157471 C337.04792707 575.93556522 334.29127237 575.56832413 331.53466797 575.20068359 C323.19638866 574.08880246 314.85767444 572.98034275 306.51791382 571.87962341 C280.32024152 568.42116211 254.1514353 564.79253737 228 561 C228.48214637 565.20265091 228.99982031 568.64524891 231.07421875 572.34765625 C231.70021973 573.4917395 231.70021973 573.4917395 232.33886719 574.65893555 C233.00644043 575.84869995 233.00644043 575.84869995 233.6875 577.0625 C237.9426584 584.90011521 241.70404117 592.70327605 245 601 C245.48984375 602.19109375 245.9796875 603.3821875 246.484375 604.609375 C250.73352449 615.19867756 253.57865332 626.0879264 256.29736328 637.15527344 C256.93993702 639.75682632 257.60496798 642.35133821 258.27734375 644.9453125 C268.98384305 686.99775558 272.65370343 730.32469436 275.375 773.5 C275.42098579 774.22176674 275.46697159 774.94353348 275.51435089 775.68717194 C275.82129878 780.50952366 276.11392359 785.33252102 276.3984375 790.15625 C276.47519714 791.39587494 276.55195679 792.63549988 276.63104248 793.91268921 C276.69527405 795.05331818 276.75950562 796.19394714 276.82568359 797.36914062 C276.88388275 798.36449829 276.94208191 799.35985596 277.00204468 800.38537598 C277.00015379 802.80334203 276.71235765 804.70203916 276 807 C275.45472656 806.32195313 274.90945313 805.64390625 274.34765625 804.9453125 C269.08304251 798.44778922 263.68939434 792.13178847 258 786 C257.40058594 785.33484375 256.80117188 784.6696875 256.18359375 783.984375 C244.89200063 771.98553307 231.05021857 764.30001418 216 758 C214.82566406 757.49597656 213.65132812 756.99195313 212.44140625 756.47265625 C191.16022059 748.37842494 167.01070877 748.32984768 144.5625 748.5625 C143.31564423 748.5699826 142.06878845 748.57746521 140.78414917 748.58517456 C122.68740967 748.69873578 104.90097835 749.14920513 87 752 C85.36980079 752.25494118 83.73959175 752.50981949 82.109375 752.76464844 C64.89804256 755.47551046 47.73431957 758.4517547 30.60620117 761.64550781 C23.38474861 762.97309236 16.13594377 764.09858006 8.875 765.1875 C7.77164307 765.35467529 6.66828613 765.52185059 5.53149414 765.6940918 C-29.7491589 770.87527872 -74.51889777 772.29373703 -104.5390625 750.125 C-107.0921537 748.15040378 -109.55701756 746.10893377 -112 744 C-112.68964844 743.40703125 -113.37929688 742.8140625 -114.08984375 742.203125 C-123.09661508 733.85625573 -129.70032818 722.79675419 -133 711 C-133.35449219 709.75992188 -133.70898438 708.51984375 -134.07421875 707.2421875 C-139.16181891 686.4281686 -131.50559055 664.65277795 -121 646.875 C-114.20727173 635.70542275 -106.43240921 625.13530332 -98.78515625 614.54296875 C-88.47338382 600.21404852 -79.25558615 585.99475859 -74 569 C-73.66162109 567.90977539 -73.32324219 566.81955078 -72.97460938 565.69628906 C-72.0202523 562.56663298 -71.08789567 559.43206133 -70.17974854 556.28869629 C-69.64180238 554.43296257 -69.09039982 552.5811461 -68.53857422 550.72949219 C-65.64907605 540.3769863 -63.86361001 529.9748548 -68.375 519.875 C-85.80304289 489.35565978 -123.64185276 472.23027334 -156 463 C-156.99515625 462.71382812 -157.9903125 462.42765625 -159.015625 462.1328125 C-165.17137728 460.71969955 -171.52214767 460.74444385 -177.8125 460.625 C-178.72128906 460.59865479 -179.63007813 460.57230957 -180.56640625 460.54516602 C-186.21582239 460.53210801 -189.56823316 461.14568473 -194 465 C-196.49497785 468.74246678 -196.56131372 471.66763429 -196 476 C-195.13951596 478.79057375 -193.92360433 481.29636507 -192.5625 483.875 C-192.20414063 484.57189941 -191.84578125 485.26879883 -191.4765625 485.98681641 C-188.68108087 491.2041621 -185.37415932 495.46226451 -181.22265625 499.69921875 C-178.27179829 502.75379756 -175.76330706 506.0882965 -173.21484375 509.48046875 C-166.85867979 516.71102564 -161.39806388 520.159925 -152 522.375 C-151.05382812 522.62121094 -150.10765625 522.86742187 -149.1328125 523.12109375 C-134.85426501 526.74017158 -116.72682287 529.35663578 -103.46875 521.5 C-101.26906029 520.05210298 -99.13672825 518.53807594 -97 517 C-96.34 516.67 -95.68 516.34 -95 516 C-94.33845364 527.55868502 -95.50446257 536.2757565 -103.125 545.3125 C-111.8081492 554.22082001 -122.46570085 558.09322125 -134 562 C-134.92554688 562.32097656 -135.85109375 562.64195312 -136.8046875 562.97265625 C-152.25931426 567.76310909 -169.47296909 567.41222367 -185.5 567.375 C-186.96132858 567.37318726 -186.96132858 567.37318726 -188.45217896 567.37133789 C-257.88735433 567.13990377 -347.27201599 549.55153885 -398 499 C-404.9923632 491.36817615 -411.51836541 481.59596094 -412 471 C-411.34515625 471.18175781 -410.6903125 471.36351562 -410.015625 471.55078125 C-408.07124607 472.08630935 -406.12438191 472.61285553 -404.17578125 473.1328125 C-402.18431661 473.67660727 -400.20052695 474.25032866 -398.23046875 474.8671875 C-374.71086316 481.77504369 -349.48868238 474.09234214 -328.3125 463.625 C-327.05118431 463.00871173 -325.78978947 462.39258541 -324.52832031 461.77661133 C-310.97575701 455.12190329 -297.7336988 447.89440954 -284.50146484 440.62792969 C-269.16867977 432.23148196 -254.11694558 425.73904739 -237 422 C-235.71802734 421.66162109 -235.71802734 421.66162109 -234.41015625 421.31640625 C-212.02946587 415.76905564 -185.3336078 421.82200982 -163.52587891 427.36035156 C-161.12988817 427.96710738 -158.72866226 428.54501664 -156.32421875 429.1171875 C-137.0372544 433.81384232 -118.50228129 440.46592506 -100.625 449.0625 C-99.44373535 449.62767334 -98.2624707 450.19284668 -97.04541016 450.77514648 C-86.55313117 455.9469043 -76.89658668 462.21546089 -67.75 469.5 C-67.16065674 469.96865479 -66.57131348 470.43730957 -65.96411133 470.92016602 C-48.95491556 484.61700772 -36.07506883 503.03375834 -33 525 C-31.07114992 545.08005716 -38.07857266 561.56621151 -47.125 579.125 C-66.23701604 613.63007376 -66.23701604 613.63007376 -69.3359375 651.58984375 C-67.53066396 656.43268625 -65.67923658 658.71255529 -60.96459961 661.21044922 C-57.7086829 662.51896601 -54.51503131 662.63510844 -51.0625 662.5625 C-50.3310376 662.55444336 -49.5995752 662.54638672 -48.84594727 662.53808594 C-33.17187031 661.97979889 -18.01168518 655.01168518 -6.98046875 643.98046875 C-3.57273996 640.22838 -0.98328343 636.66654926 1 632 C1.33 632 1.66 632 2 632 C2.62187532 649.1015714 -4.60106598 664.04535049 -15.96044922 676.51147461 C-27.50396756 688.63312287 -44.09691503 697.2613778 -61 698 C-62.14855469 698.07476563 -63.29710937 698.14953125 -64.48046875 698.2265625 C-77.03350844 698.79864316 -87.85715264 695.84570915 -99 690 C-99.67609013 698.38351761 -97.81836583 704.28608961 -92.484375 710.87109375 C-70.7809206 732.03684996 -35.8936408 734.38064375 -7.49609375 734.140625 C13.10124385 733.82076653 33.12631314 730.54347852 53.41156006 727.20178223 C112.40192508 717.49288241 174.09504229 709.88503384 231.5625 730.625 C232.32997559 730.90182617 233.09745117 731.17865234 233.88818359 731.46386719 C238.37754656 733.16461218 242.10885952 735.18460926 246 738 C242.02644014 664.75602351 219.3463438 577.48977765 163.25390625 526.50390625 C160.55947758 524.24746889 157.8147193 522.10420763 155 520 C154.03964844 519.27425781 153.07929687 518.54851563 152.08984375 517.80078125 C111.25919364 488.22307896 63.11991523 485.07996241 14.62109375 491.32421875 C3.21393726 492.77458709 -7.71853412 492.24781087 -19 490 C-20.51207031 489.70802734 -20.51207031 489.70802734 -22.0546875 489.41015625 C-38.38942446 485.8249997 -50.07945194 476.40529611 -61.3125 464.5 C-86.75697684 438.68339187 -123.01809979 429.37734562 -157 421 C-157 420.67 -157 420.34 -157 420 C-132.93616561 419.50128093 -110.02970399 420.4013667 -87 428 C-86.23768066 428.24733887 -85.47536133 428.49467773 -84.68994141 428.74951172 C-70.23837214 433.51682376 -56.14665598 439.79715581 -43.6875 448.625 C-41.06334082 450.4577461 -39.94541249 451.01029953 -36.6875 451.625 C-33.27657484 450.83176159 -32.10318083 449.77920323 -30 447 C-25.43160047 438.09493135 -26.95884382 425.30934498 -29.74316406 416.04858398 C-37.39429539 393.44319308 -50.85568848 369.14507516 -72.625 357.5234375 C-85.26934188 351.81592207 -98.26779044 348.68997498 -112 347 C-112.72968994 346.9057373 -113.45937988 346.81147461 -114.21118164 346.71435547 C-146.98875757 342.91573104 -179.73024479 348.37214359 -211.93833923 353.96838379 C-217.2404718 354.88482956 -222.55293043 355.70649495 -227.87939453 356.47045898 C-230.37511047 356.8939614 -232.80101457 357.39757936 -235.26538086 357.96459961 C-240.06391496 359.05023415 -244.87679479 359.81639651 -249.74609375 360.5078125 C-250.66277328 360.63852142 -251.57945282 360.76923035 -252.52391052 360.90390015 C-269.95372264 363.34844191 -287.24826097 365.60181621 -304.875 365.5 C-306.18267334 365.49371582 -307.49034668 365.48743164 -308.83764648 365.48095703 C-321.53832082 365.22991341 -334.226923 364.0125067 -346.4375 360.375 C-347.31656006 360.11702637 -348.19562012 359.85905273 -349.10131836 359.59326172 C-374.30714564 351.87649531 -393.78731331 336.50771159 -411 317 C-410.67 316.34 -410.34 315.68 -410 315 C-409.47535156 315.3403125 -408.95070313 315.680625 -408.41015625 316.03125 C-383.96832946 331.32264247 -355.34531071 340.03023386 -326.4609375 340.203125 C-325.66877838 340.20991272 -324.87661926 340.21670044 -324.06045532 340.22369385 C-321.49859646 340.24060463 -318.93691106 340.24689205 -316.375 340.25 C-315.06305664 340.25350464 -315.06305664 340.25350464 -313.72460938 340.25708008 C-297.00383515 340.27384964 -280.58582727 339.06590251 -264 337 C-264 336.34 -264 335.68 -264 335 C-265.67121957 333.55512371 -267.41824409 332.19801772 -269.1875 330.875 C-270.38418046 329.97274361 -271.58079001 329.07039318 -272.77734375 328.16796875 C-273.44620605 327.66700684 -274.11506836 327.16604492 -274.80419922 326.64990234 C-278.06988843 324.19609673 -281.3153619 321.71599209 -284.56274414 319.23803711 C-287.2799832 317.16462103 -289.99917761 315.09379186 -292.71875 313.0234375 C-300.83683213 306.84088942 -308.93943981 300.63812469 -317.04296875 294.43652344 C-321.23399386 291.22939137 -325.426256 288.02388591 -329.61962891 284.81982422 C-331.33337434 283.50964386 -333.04651777 282.19867592 -334.75927734 280.88720703 C-337.65084536 278.67326684 -340.54405634 276.46148807 -343.4375 274.25 C-344.81566895 273.19365356 -344.81566895 273.19365356 -346.22167969 272.1159668 C-347.50220215 271.13817261 -347.50220215 271.13817261 -348.80859375 270.140625 C-349.56970459 269.55829102 -350.33081543 268.97595703 -351.11499023 268.37597656 C-352.9531125 266.95422356 -352.9531125 266.95422356 -355 266 C-355 253.46 -355 240.92 -355 228 C-350.78818945 230.52708633 -347.89204272 232.79755527 -344.375 236.125 C-340.50024163 239.75035415 -336.57418482 243.2329732 -332.4375 246.5625 C-328.67161811 249.59357567 -325.05670244 252.72581577 -321.5 256 C-317.92207537 259.29331699 -314.28460334 262.44651321 -310.5 265.5 C-305.74260332 269.33835414 -301.24216082 273.39622359 -296.74609375 277.53515625 C-294.08124834 279.92707297 -291.35168175 282.19254884 -288.5625 284.4375 C-284.02763839 288.09506264 -279.74463817 291.94617027 -275.48291016 295.91162109 C-271.37220724 299.71398807 -267.07724416 303.24270592 -262.71484375 306.75390625 C-258.94495533 309.87287869 -255.37535549 313.19371847 -251.77734375 316.5078125 C-248.09797246 319.80941431 -244.27296412 322.90876796 -240.41015625 325.9921875 C-238 328 -238 328 -236.140625 330.29296875 C-234.01792582 332.34159212 -234.01792582 332.34159212 -230.63671875 332.05859375 C-229.33347656 331.85363281 -228.03023437 331.64867187 -226.6875 331.4375 C-225.98761963 331.33324707 -225.28773926 331.22899414 -224.56665039 331.12158203 C-218.46726457 330.17858263 -212.42457025 328.93012507 -206.40234375 327.5859375 C-202.86982598 326.97758197 -199.57729317 326.89974465 -196 327 C-203.66418217 319.25340727 -211.77272196 312.12087206 -220.25 305.28125 C-224.03763346 302.13923588 -227.62994271 298.80084819 -231.25 295.46875 C-233.93737634 293.05621896 -236.68965444 290.7674379 -239.5 288.5 C-244.25595419 284.66280969 -248.75504801 280.60614899 -253.25 276.46875 C-255.93737634 274.05621896 -258.68965444 271.7674379 -261.5 269.5 C-266.25739668 265.66164586 -270.75783918 261.60377641 -275.25390625 257.46484375 C-277.91875166 255.07292703 -280.64831825 252.80745116 -283.4375 250.5625 C-287.97236161 246.90493736 -292.25536183 243.05382973 -296.51708984 239.08837891 C-300.62779276 235.28601193 -304.92275584 231.75729408 -309.28515625 228.24609375 C-312.10673495 225.9116941 -314.80590712 223.48009402 -317.5 221 C-321.07792463 217.70668301 -324.71539666 214.55348679 -328.5 211.5 C-333.2553577 207.66329094 -337.7708445 203.63447551 -342.2109375 199.4375 C-344.94430428 196.92980384 -344.94430428 196.92980384 -348.1015625 195 C-352.79809303 191.89325112 -355.56271388 189.82233829 -356.91015625 184.20703125 C-357.26444502 180.35331774 -357.21102143 176.52791654 -357.07910156 172.66357422 C-356.99267719 169.75342007 -357.00040879 166.85269575 -357.0234375 163.94140625 C-357.0629243 158.62682231 -357.04863977 153.31445638 -357 148 C-352.54173869 147.94176437 -348.08710272 147.94225136 -343.62890625 147.98339844 C-341.7851929 147.9950415 -339.94138288 147.99465705 -338.09765625 147.98535156 C-335.0430127 147.97650607 -331.99175367 148.01584966 -328.9375 148.0625 C-327.96288818 148.0514624 -326.98827637 148.0404248 -325.98413086 148.02905273 C-320.88339602 148.15262429 -317.80527072 148.57919332 -314.0859375 152.23046875 C-313.02912862 153.46338629 -311.99775036 154.71881895 -311 156 C-310.24074219 156.89203125 -309.48148437 157.7840625 -308.69921875 158.703125 C-308.03535156 159.54359375 -307.37148438 160.3840625 -306.6875 161.25 C-303.5728762 165.12080581 -300.36666641 168.84625351 -297 172.5 C-292.90648909 176.94727112 -289.07557501 181.54717463 -285.28125 186.25 C-282.13805742 190.03905407 -278.79841405 193.63269352 -275.46484375 197.25390625 C-273.07292703 199.91875166 -270.80745116 202.64831825 -268.5625 205.4375 C-265.34056899 209.43223986 -261.99344505 213.24554349 -258.5 217 C-254.21044887 221.61004336 -250.19589328 226.37782956 -246.24609375 231.28515625 C-243.9116941 234.10673495 -241.48009402 236.80590712 -239 239.5 C-234.90648909 243.94727112 -231.07557501 248.54717463 -227.28125 253.25 C-224.93281032 256.08099578 -222.49090098 258.79383598 -220 261.5 C-215.90648909 265.94727112 -212.07557501 270.54717463 -208.28125 275.25 C-205.13805742 279.03905407 -201.79841405 282.63269352 -198.46484375 286.25390625 C-196.07292703 288.91875166 -193.80745116 291.64831825 -191.5625 294.4375 C-187.86794182 299.02136775 -184.00735448 303.39301898 -179.92358398 307.63134766 C-177.03060361 310.67632613 -175.1066374 313.63963758 -173.125 317.3125 C-171.63465589 319.64580642 -171.63465589 319.64580642 -169 321 C-159.81858279 322.25663542 -147.44119882 321.72292551 -139.625 316.375 C-139.08875 315.92125 -138.5525 315.4675 -138 315 C-138.56615984 311.11649732 -140.33844647 309.24229686 -143 306.4375 C-146.26121902 302.92423093 -149.37645073 299.36506777 -152.375 295.625 C-156.05571847 291.07219493 -159.92648648 286.76582589 -163.91137695 282.4831543 C-167.71385014 278.37239043 -171.24263299 274.07733477 -174.75390625 269.71484375 C-177.0883059 266.89326505 -179.51990598 264.19409288 -182 261.5 C-185.27418423 257.94329756 -188.40642433 254.32838189 -191.4375 250.5625 C-194.65943101 246.56776014 -198.00655495 242.75445651 -201.5 239 C-205.78955113 234.38995664 -209.80410672 229.62217044 -213.75390625 224.71484375 C-216.0883059 221.89326505 -218.51990598 219.19409288 -221 216.5 C-225.09351091 212.05272888 -228.92442499 207.45282537 -232.71875 202.75 C-235.86194258 198.96094593 -239.20158595 195.36730648 -242.53515625 191.74609375 C-244.92707297 189.08124834 -247.19254884 186.35168175 -249.4375 183.5625 C-253.09011755 179.0337696 -256.93462732 174.75511786 -260.89624023 170.50048828 C-264.83711107 166.24215262 -268.502904 161.81162202 -272.125 157.27734375 C-273.90294474 155.02840874 -273.90294474 155.02840874 -275.75 153.31640625 C-277 152 -277 152 -277 150 C-270.79045922 149.95282056 -264.58449194 149.94150813 -258.375 150.00390625 C-254.85449952 150.03300551 -251.43315653 150.00719377 -247.9375 149.58984375 C-244.29974203 149.33974789 -242.32437705 149.45702121 -239 151 C-234.13538026 155.42963139 -230.50925752 160.98300458 -226.81347656 166.38134766 C-223.83510208 170.68210758 -220.65660563 174.82938272 -217.5 179 C-216.23913581 180.68716565 -214.97871776 182.3746648 -213.71875 184.0625 C-210.20132818 188.75239576 -206.613153 193.3836465 -203 198 C-198.08778969 204.27609715 -193.26628309 210.61239426 -188.5 217 C-183.12107655 224.20686812 -177.66032377 231.34154645 -172.12451172 238.4284668 C-166.61279952 245.48535205 -161.16957682 252.59298782 -155.7421875 259.71484375 C-153.88188356 262.15492851 -152.01915243 264.59314861 -150.15625 267.03125 C-141.03855202 278.97199161 -131.99390566 290.96576318 -123 303 C-119.63846852 302.44047378 -116.9947824 301.65737585 -114.0234375 299.99609375 C-112.9082373 299.38544067 -112.9082373 299.38544067 -111.77050781 298.76245117 C-110.97999023 298.32521729 -110.18947266 297.8879834 -109.375 297.4375 C-92.49822776 288.34359415 -74.06614556 280.00572177 -55 277 C-55.33 276.34 -55.66 275.68 -56 275 C-56.24633089 273.66206876 -56.44942801 272.3160243 -56.62915039 270.9675293 C-56.74371582 270.12106842 -56.85828125 269.27460754 -56.97631836 268.40249634 C-57.09885986 267.46916473 -57.22140137 266.53583313 -57.34765625 265.57421875 C-57.54584961 264.09687759 -57.54584961 264.09687759 -57.74804688 262.58969116 C-58.18975569 259.28942502 -58.62616434 255.98848052 -59.0625 252.6875 C-59.37337456 250.3553551 -59.6844959 248.02324309 -59.99584961 245.69116211 C-62.7229378 225.22828418 -65.40209138 204.75899886 -68.0793457 184.28955078 C-69.99448087 169.64852196 -71.92085282 155.00911422 -73.87493896 140.37322998 C-74.24308522 137.6143198 -74.61017347 134.85527058 -74.97705078 132.09619141 C-75.96006272 124.7131461 -76.94840144 117.33116785 -77.97952271 109.95466614 C-78.37775493 107.10401587 -78.77110532 104.25270141 -79.16418457 101.40133667 C-79.42772533 99.50773331 -79.69954407 97.61528768 -79.97167969 95.72290039 C-80.12411133 94.6168042 -80.27654297 93.51070801 -80.43359375 92.37109375 C-80.56822021 91.42161865 -80.70284668 90.47214355 -80.84155273 89.49389648 C-81.0712073 85.87922563 -80.77175675 83.93208735 -78.43701172 81.11230469 C-77.77459473 80.47196289 -77.11217773 79.83162109 -76.4296875 79.171875 C-75.33140625 78.09486328 -75.33140625 78.09486328 -74.2109375 76.99609375 C-73.44007813 76.25488281 -72.66921875 75.51367188 -71.875 74.75 C-66.80176408 69.82546237 -61.91281051 64.9050291 -57.41455078 59.44238281 C-56.71434814 58.72840332 -56.71434814 58.72840332 -56 58 C-55.34 58 -54.68 58 -54 58 C-53.91024902 59.24716797 -53.82049805 60.49433594 -53.72802734 61.77929688 C-51.74229038 89.34293991 -49.71310633 116.90292159 -47.63543129 144.4597702 C-45.54226143 172.22520129 -43.46303607 199.99165443 -41.45846558 227.76364136 C-41.23846998 230.81073558 -41.01684799 233.85770426 -40.79373169 236.90457153 C-40.53395451 240.45378405 -40.27774565 244.00323636 -40.0243206 247.55290794 C-39.88824868 249.44773753 -39.74876823 251.3423214 -39.60914612 253.2368927 C-39.14252727 259.83864552 -38.88013923 266.38172891 -39 273 C-37.75605469 272.855625 -36.51210938 272.71125 -35.23046875 272.5625 C-26.45209334 271.57311404 -17.84762818 270.72152447 -9 271 C-9.12892136 270.05700043 -9.25784271 269.11400085 -9.39067078 268.14242554 C-10.78108814 257.6875996 -11.64611394 247.24835541 -12.33203125 236.7265625 C-12.44951394 234.97983739 -12.56747221 233.23314421 -12.68586731 231.48648071 C-12.93601663 227.78626569 -13.1836808 224.08589709 -13.42926025 220.38537598 C-14.08066929 210.57645374 -14.74949727 200.76870913 -15.41796875 190.9609375 C-15.48490433 189.97696991 -15.5518399 188.99300232 -15.62080383 187.97921753 C-16.81825009 170.39385363 -18.11333752 152.81739299 -19.47109985 135.24375916 C-21.06578356 114.58481041 -22.61541418 93.92342046 -24.04388428 73.25231934 C-24.21976821 70.71353201 -24.39747345 68.17487006 -24.57720947 65.63635254 C-26.1358035 43.56266689 -26.1358035 43.56266689 -26.296875 33.6015625 C-26.31717773 32.40096191 -26.33748047 31.20036133 -26.35839844 29.96337891 C-25.95829441 26.65516183 -25.23295161 25.36159407 -22.9375 23 C-21.63321484 21.98930891 -20.32066402 20.98919301 -19 20 C-17.90708639 18.79779503 -16.84535448 17.56668044 -15.8125 16.3125 C-10.86931403 10.56434567 -5.39680835 5.31705256 0 0 Z " fill="#0133A1" transform="translate(493,112)"/>
<path d="M0 0 C5.72704174 5.24614511 8.72188659 11.81878492 9.21484375 19.48828125 C9.28924616 29.77069448 7.44025404 39.73504343 0.41015625 47.73828125 C-6.01593958 53.55786916 -13.33907009 56.04679027 -21.953125 55.875 C-30.36392316 54.8428655 -37.19950175 52.23008682 -42.953125 45.875 C-49.38179164 37.14372605 -50.16206755 28.28887355 -48.953125 17.875 C-47.28747063 9.5878554 -43.30402848 3.41907364 -36.953125 -2.125 C-25.112785 -9.99675458 -11.27441746 -7.99604075 0 0 Z " fill="#0536A2" transform="translate(480.953125,909.125)"/>
<path d="M0 0 C4.71835837 2.4170915 6.02332609 8.74463096 7.9309082 13.39770508 C8.68404297 15.10023438 8.68404297 15.10023438 9.45239258 16.8371582 C12.5878044 24.31522205 14.25077167 30.95798879 13.1184082 39.08520508 C11.00799788 43.54051575 8.72313424 46.24331466 4.1184082 48.08520508 C-0.3974649 48.67745073 -3.81997902 48.60517868 -7.9440918 46.58520508 C-8.5834668 46.09020508 -9.2228418 45.59520508 -9.8815918 45.08520508 C-9.97956055 45.67688477 -10.0775293 46.26856445 -10.1784668 46.87817383 C-11.12810079 51.89649831 -11.99244479 55.51139431 -15.8815918 59.08520508 C-20.72503014 61.78635338 -25.37705046 63.24136339 -30.8815918 62.08520508 C-37.80742072 59.64293909 -40.97279928 54.88967733 -44.0690918 48.58520508 C-45.05926166 46.46976403 -46.01719969 44.34443646 -46.95288086 42.2043457 C-47.85556432 40.1445948 -48.79664021 38.10685545 -49.7487793 36.06958008 C-53.95822615 26.84067781 -53.95822615 26.84067781 -53.67333984 24.03222656 C-52.62949317 21.46525857 -51.66793913 21.11984803 -49.1472168 20.04223633 C-48.35549072 19.69507568 -47.56376465 19.34791504 -46.74804688 18.99023438 C-45.8846167 18.62969971 -45.02118652 18.26916504 -44.1315918 17.89770508 C-43.24431396 17.51332275 -42.35703613 17.12894043 -41.44287109 16.73291016 C-38.59494903 15.50288155 -35.73866629 14.29380095 -32.8815918 13.08520508 C-30.98646665 12.27148268 -29.09192757 11.45639391 -27.19799805 10.63989258 C-22.88876386 8.78408825 -18.57556249 6.93827865 -14.2512207 5.11791992 C-12.63389775 4.41306972 -11.03203446 3.67192072 -9.44555664 2.90014648 C-3.64922806 0.10790313 -3.64922806 0.10790313 0 0 Z " fill="#0435A1" transform="translate(175.881591796875,669.914794921875)"/>
<path d="M0 0 C5.82875129 1.68752533 11.0603205 4.36669909 16.4375 7.125 C17.35337891 7.57359375 18.26925781 8.0221875 19.21289062 8.484375 C26.63257655 12.29808291 32.66567567 17.14418106 36 25 C36.85367035 32.07326865 34.91079865 37.0880914 31 43 C28.63128225 45.53667084 26.12150319 47.4392484 23 49 C20.6670134 49.04022391 18.33293334 49.04320247 16 49 C16.0721875 49.53625 16.144375 50.0725 16.21875 50.625 C17.18138269 58.75389824 17.09123205 66.82966291 17 75 C9.73150175 72.61876095 9.73150175 72.61876095 6.6875 71.3125 C6.01074219 71.04050781 5.33398438 70.76851562 4.63671875 70.48828125 C0.65503005 66.86770036 1.71028842 58.28125559 1.4375 53.0625 C1.39431641 52.28326172 1.35113281 51.50402344 1.30664062 50.70117188 C1.20171923 48.80092883 1.1004755 46.90048331 1 45 C-0.98 44.01 -2.96 43.02 -5 42 C-5.26554687 42.85851562 -5.53109375 43.71703125 -5.8046875 44.6015625 C-7.01023801 48.02910808 -8.47244386 51.14173798 -10.125 54.375 C-10.66382813 55.43460938 -11.20265625 56.49421875 -11.7578125 57.5859375 C-12.16773438 58.38257813 -12.57765625 59.17921875 -13 60 C-17.9723422 58.50829734 -22.41845739 56.39542583 -27 54 C-21.21905688 41.51579805 -15.14651788 29.18216606 -9 16.875 C-8.61361359 16.09972961 -8.22722717 15.32445923 -7.82913208 14.5256958 C-6.72173377 12.30502766 -5.61141286 10.08584865 -4.5 7.8671875 C-4.16181747 7.1888385 -3.82363495 6.5104895 -3.47520447 5.81158447 C-1.11524894 1.11524894 -1.11524894 1.11524894 0 0 Z " fill="#0435A1" transform="translate(335,859)"/>
<path d="M0 0 C1.18669576 2.85719094 2.26668562 5.6967743 3.30078125 8.609375 C3.61903366 9.48716614 3.93728607 10.36495728 4.2651825 11.26934814 C5.2877436 14.0938339 6.30041653 16.92174489 7.3125 19.75 C8.31337271 22.52770563 9.31628267 25.30466745 10.3197937 28.0814209 C10.97068707 29.88314721 11.62037754 31.68530856 12.26882935 33.48791504 C14.47354348 39.60221966 16.77270889 45.66881017 19.17651367 51.70800781 C20 54 20 54 20 56 C13.07 58.475 13.07 58.475 6 61 C3.36 54.07 0.72 47.14 -2 40 C-6.8752797 40.81254662 -10.67852388 41.85549136 -15.25 43.5625 C-21.79603399 46 -21.79603399 46 -24 46 C-23.79318604 46.51908936 -23.58637207 47.03817871 -23.37329102 47.57299805 C-22.43198389 49.94278697 -21.49719443 52.31509554 -20.5625 54.6875 C-20.07426758 55.91243164 -20.07426758 55.91243164 -19.57617188 57.16210938 C-18.03660231 61.08245663 -16.60655105 64.80540049 -16 69 C-17.95649397 69.83764268 -19.91525556 70.66999059 -21.875 71.5 C-23.51082031 72.19609375 -23.51082031 72.19609375 -25.1796875 72.90625 C-28 74 -28 74 -30 74 C-33.74306426 64.53159781 -37.39206642 55.05162214 -40.71582031 45.42724609 C-42.8937905 39.17177751 -45.30813982 33.01688027 -47.81640625 26.88671875 C-49.24100084 23.32845533 -50 20.88547042 -50 17 C-48.23141309 16.32739649 -46.46003984 15.66211605 -44.6875 15 C-43.70136719 14.62875 -42.71523438 14.2575 -41.69921875 13.875 C-39 13 -39 13 -36 13 C-34.82538445 16.10121711 -33.66169544 19.20642241 -32.5 22.3125 C-32.16613281 23.19357422 -31.83226562 24.07464844 -31.48828125 24.98242188 C-31.17246094 25.82998047 -30.85664062 26.67753906 -30.53125 27.55078125 C-30.09135742 28.72120972 -30.09135742 28.72120972 -29.64257812 29.9152832 C-29 32 -29 32 -29 35 C-28.40461426 34.75765625 -27.80922852 34.5153125 -27.19580078 34.265625 C-24.50697235 33.17350176 -21.81602826 32.08669081 -19.125 31 C-18.18785156 30.6184375 -17.25070312 30.236875 -16.28515625 29.84375 C-15.38925781 29.4828125 -14.49335937 29.121875 -13.5703125 28.75 C-12.74289551 28.41484375 -11.91547852 28.0796875 -11.06298828 27.734375 C-9 27 -9 27 -7 27 C-7.24234375 26.37432129 -7.4846875 25.74864258 -7.734375 25.10400391 C-8.82637063 22.2789902 -9.91324432 19.45203336 -11 16.625 C-11.3815625 15.64015625 -11.763125 14.6553125 -12.15625 13.640625 C-12.69765625 12.22910156 -12.69765625 12.22910156 -13.25 10.7890625 C-13.58515625 9.91975098 -13.9203125 9.05043945 -14.265625 8.15478516 C-15 6 -15 6 -15 4 C-12.87875034 3.13656176 -10.75286928 2.28449352 -8.625 1.4375 C-6.84996094 0.72400391 -6.84996094 0.72400391 -5.0390625 -0.00390625 C-2 -1 -2 -1 0 0 Z " fill="#0536A2" transform="translate(672,876)"/>
<path d="M0 0 C6.39754708 3.75411617 10.90061513 7.98262562 13.640625 14.96484375 C14.64327256 18.84046222 14.50295348 22.33629526 14.25 26.3203125 C12.04238105 25.85916543 9.841778 25.37974772 7.64453125 24.87109375 C5.70775893 24.42560452 3.76125396 24.02256329 1.8125 23.6328125 C0.5440625 22.983125 0.5440625 22.983125 -0.75 22.3203125 C-1.43939809 19.99359396 -2.10466922 17.65963656 -2.75 15.3203125 C-5.90558824 12.39012342 -8.49885343 11.07277523 -12.75 10.8203125 C-17.009279 11.07229275 -19.52883855 12.46519212 -22.75 15.3203125 C-27.51404563 21.74340278 -28.492481 28.52426196 -27.75 36.3203125 C-26.42859682 40.28452204 -25.45331341 41.84078063 -22 44.1953125 C-17.16337008 45.86953055 -13.54960958 46.18099534 -8.875 43.9453125 C-6.65335175 42.49271208 -6.65335175 42.49271208 -5.75 40.3203125 C-9.05 39.0003125 -12.35 37.6803125 -15.75 36.3203125 C-15.29177532 32.85089704 -14.85868317 29.64636201 -13.75 26.3203125 C-4.73830962 26.64215859 2.98256978 30.00319633 11.25 33.3203125 C10.37266002 42.10294747 7.94982367 48.10428821 1.375 54.2578125 C-4.24593853 58.78812116 -9.98347042 59.81200095 -17.0703125 59.62890625 C-25.72833365 58.63184551 -33.07900639 54.95430503 -38.75 48.3203125 C-43.80613777 40.32455975 -44.60206755 32.68337296 -43.75 23.3203125 C-41.3406865 14.52424124 -36.93660629 6.5670684 -29.6875 0.9453125 C-20.40351473 -4.19050914 -9.69575065 -4.56083008 0 0 Z " fill="#0536A2" transform="translate(412.75,890.6796875)"/>
<path d="M0 0 C4.37006141 3.94052546 7.65485995 8.32896494 8.21484375 14.28515625 C8.47627684 21.21836171 7.2882646 26.18870349 2.8125 31.6875 C-3.51924122 36.89359833 -9.98028231 38.75102757 -18 40 C-17.48758893 46.02900687 -16.930215 52.02004643 -16 58 C-19.58601912 59.37923812 -22.91896956 60.18082705 -26.72265625 60.56640625 C-27.52582275 60.64963135 -28.32898926 60.73285645 -29.15649414 60.81860352 C-30.06902954 60.90839478 -30.06902954 60.90839478 -31 61 C-32.24570295 55.05936742 -33.49079801 49.11860786 -34.73535156 43.17773438 C-35.15803963 41.16044751 -35.58088827 39.14319428 -36.00390625 37.12597656 C-36.61501517 34.21167885 -37.2255295 31.29725709 -37.8359375 28.3828125 C-38.02247894 27.49385284 -38.20902039 26.60489319 -38.4012146 25.68899536 C-38.93753235 23.12668833 -39.46933017 20.56348211 -40 18 C-40.18975403 17.09489685 -40.37950806 16.1897937 -40.57501221 15.25726318 C-40.75731384 14.37298645 -40.93961548 13.48870972 -41.12744141 12.57763672 C-41.29208893 11.78525604 -41.45673645 10.99287537 -41.62637329 10.17648315 C-42.09807053 7.42871092 -42.14632823 4.78023643 -42 2 C-10.77705817 -6.48130771 -10.77705817 -6.48130771 0 0 Z " fill="#0435A2" transform="translate(615,902)"/>
<path d="M0 0 C2.76837071 1.32824897 5.31957748 2.79752246 7.87109375 4.50390625 C8.60473145 4.99342773 9.33836914 5.48294922 10.09423828 5.98730469 C11.25415283 6.76702637 11.25415283 6.76702637 12.4375 7.5625 C13.23140137 8.09391602 14.02530273 8.62533203 14.84326172 9.17285156 C21.61025282 13.71323158 28.32296116 18.32843219 35 23 C33.45657029 27.08105062 31.50065501 30.41572782 29 34 C22.56008044 29.97198947 16.24731087 25.8381504 10.09375 21.3828125 C7.95694818 19.84178865 7.95694818 19.84178865 5 19 C4.71125 19.721875 4.4225 20.44375 4.125 21.1875 C3.08333333 23.79166667 2.04166667 26.39583333 1 29 C1.78503906 29.51949219 2.57007813 30.03898438 3.37890625 30.57421875 C8.98622354 34.29637661 14.55682628 38.0413282 20 42 C18.34832443 45.5786304 16.21713508 48.74820188 14 52 C8.46645579 50.15192442 4.05381583 46.72335415 -0.6484375 43.36914062 C-2.38262194 42.17081918 -4.18788633 41.07685376 -6 40 C-9.53233755 41.17744585 -9.86308075 41.95605641 -11.6875 45.0625 C-12.12449219 45.79597656 -12.56148438 46.52945313 -13.01171875 47.28515625 C-13.33785156 47.85105469 -13.66398437 48.41695312 -14 49 C-13.35675781 49.20367188 -12.71351563 49.40734375 -12.05078125 49.6171875 C-7.70828599 51.58548881 -4.04200352 54.33993543 -0.1875 57.125 C0.60076172 57.68832031 1.38902344 58.25164063 2.20117188 58.83203125 C4.13746831 60.21677658 6.07022641 61.60618627 8 63 C6.52069807 66.96479572 4.76352943 69.77588233 2 73 C-2.26505651 71.50162813 -5.83252701 69.28471717 -9.54296875 66.75390625 C-10.15263992 66.34212631 -10.7623111 65.93034637 -11.39045715 65.50608826 C-12.67198936 64.63851197 -13.95188653 63.76851609 -15.23022461 62.89624023 C-17.18674277 61.563016 -19.15055451 60.24108012 -21.11523438 58.91992188 C-22.36243377 58.0735862 -23.60919408 57.22660303 -24.85546875 56.37890625 C-25.44192673 55.98506241 -26.0283847 55.59121857 -26.63261414 55.18544006 C-29.41757845 53.27327465 -31.0977882 51.8533177 -33 49 C-26.00106943 38.4516008 -18.98635149 27.91793548 -11.78857422 17.50390625 C-7.79025189 11.71437155 -3.8797316 5.86962259 0 0 Z " fill="#0536A2" transform="translate(295,832)"/>
<path d="M0 0 C3.01838845 2.86786934 4.98366584 6.11118888 7.0625 9.6875 C9.58621155 13.97871115 12.13433185 18.24431836 14.8125 22.44140625 C15.27132568 23.16175049 15.73015137 23.88209473 16.20288086 24.62426758 C17.09687781 26.0220107 17.99599447 27.41649479 18.90063477 28.80737305 C22 33.66988344 22 33.66988344 22 37 C20.35546875 38.421875 20.35546875 38.421875 18.1875 39.75 C17.47980469 40.19859375 16.77210938 40.6471875 16.04296875 41.109375 C14 42 14 42 11 41 C9.55786133 39.17407227 9.55786133 39.17407227 8.08203125 36.81640625 C7.55029297 35.97142578 7.01855469 35.12644531 6.47070312 34.25585938 C5.92349609 33.36705078 5.37628906 32.47824219 4.8125 31.5625 C4.25369141 30.67755859 3.69488281 29.79261719 3.11914062 28.88085938 C-1 22.27715774 -1 22.27715774 -1 20 C-4.3 21.65 -7.6 23.3 -11 25 C-9.62992517 28.42518707 -8.52901186 30.9734813 -6.6171875 33.98828125 C-6.17246094 34.69404297 -5.72773438 35.39980469 -5.26953125 36.12695312 C-4.80933594 36.84818359 -4.34914062 37.56941406 -3.875 38.3125 C-3.40707031 39.05306641 -2.93914062 39.79363281 -2.45703125 40.55664062 C-1.30835804 42.37341968 -0.15467631 44.18703037 1 46 C-1.81856399 48.90252121 -4.4009385 51.10575711 -8 53 C-8.66 53 -9.32 53 -10 53 C-11.32861328 51.1640625 -11.32861328 51.1640625 -12.8203125 48.625 C-13.35527344 47.72265625 -13.89023438 46.8203125 -14.44140625 45.890625 C-14.99699219 44.93671875 -15.55257812 43.9828125 -16.125 43 C-16.68832031 42.04609375 -17.25164062 41.0921875 -17.83203125 40.109375 C-19.22797259 37.74337273 -20.61691272 35.3735318 -22 33 C-22.76699219 33.30679688 -23.53398437 33.61359375 -24.32421875 33.9296875 C-26.8828125 34.953125 -29.44140625 35.9765625 -32 37 C-30.14487028 41.03289069 -28.16191281 44.81682746 -25.6953125 48.5078125 C-25.07934204 49.43182861 -25.07934204 49.43182861 -24.45092773 50.37451172 C-23.61503082 51.61535425 -22.76828825 52.84896552 -21.91040039 54.07470703 C-18.99191309 58.41167699 -18.99191309 58.41167699 -19.03125 61.2734375 C-20.20541639 63.36610501 -21.23239181 64.19018463 -23.3125 65.375 C-23.90675781 65.73335937 -24.50101563 66.09171875 -25.11328125 66.4609375 C-27 67 -27 67 -28.94482422 66.29516602 C-31.40797683 64.74289414 -32.31877135 63.32950627 -33.76953125 60.81640625 C-34.26300049 59.9759375 -34.75646973 59.13546875 -35.26489258 58.26953125 C-36.03095825 56.92955078 -36.03095825 56.92955078 -36.8125 55.5625 C-37.87350674 53.74001526 -38.93599819 51.91839404 -40 50.09765625 C-40.51175781 49.21867676 -41.02351562 48.33969727 -41.55078125 47.43408203 C-43.86777214 43.54250535 -46.40008432 39.81013534 -48.98828125 36.09375 C-50 34 -50 34 -49.90600586 32.09741211 C-48.54828109 28.95426646 -46.44013188 28.0685039 -43.515625 26.34765625 C-42.95170044 26.01075775 -42.38777588 25.67385925 -41.8067627 25.32675171 C-39.96104008 24.22721182 -38.10571246 23.14507827 -36.25 22.0625 C-34.97997457 21.30940472 -33.71077271 20.55491892 -32.44238281 19.79907227 C-30.51376098 18.65020094 -28.58458212 17.50238838 -26.65252686 16.35929871 C-20.63505035 12.79882336 -14.68530774 9.13321689 -8.75 5.4375 C-7.85829102 4.88392822 -6.96658203 4.33035645 -6.04785156 3.76000977 C-4.03111541 2.50792918 -2.01513716 1.25465172 0 0 Z " fill="#0536A2" transform="translate(197,716)"/>
<path d="M0 0 C5.28 0 10.56 0 16 0 C14.54966971 7.08178054 12.562428 13.87095168 10.33984375 20.74609375 C9.81494102 22.38458031 9.81494102 22.38458031 9.2794342 24.0561676 C8.54421195 26.34851569 7.80707482 28.64025043 7.06811523 30.93139648 C5.93359385 34.44961318 4.80518245 37.96974532 3.67773438 41.49023438 C2.96129135 43.72146782 2.24450665 45.95259159 1.52734375 48.18359375 C1.18879868 49.23872665 0.8502536 50.29385956 0.50144958 51.38096619 C0.18764847 52.3528035 -0.12615265 53.32464081 -0.44946289 54.32592773 C-0.72544815 55.1825853 -1.00143341 56.03924286 -1.28578186 56.92185974 C-2 59 -2 59 -3 61 C-9.6 61 -16.2 61 -23 61 C-23.60585938 59.23140625 -24.21171875 57.4628125 -24.8359375 55.640625 C-25.68190086 53.1769482 -26.52824552 50.71340479 -27.375 48.25 C-27.59565125 47.60750305 -27.81630249 46.9650061 -28.04364014 46.30303955 C-30.61106952 38.83282757 -33.20850236 31.37519939 -35.890625 23.9453125 C-36.23723679 22.98365173 -36.23723679 22.98365173 -36.59085083 22.00256348 C-37.70420295 18.91624783 -38.82352869 15.8322818 -39.95068359 12.75097656 C-40.35109863 11.64463867 -40.75151367 10.53830078 -41.1640625 9.3984375 C-41.51936035 8.42567871 -41.8746582 7.45291992 -42.24072266 6.45068359 C-43 4 -43 4 -43 1 C-37.72 1 -32.44 1 -27 1 C-24.91566712 5.86344339 -23.07960893 10.55511159 -21.51953125 15.578125 C-21.30181564 16.27137878 -21.08410004 16.96463257 -20.85978699 17.67889404 C-20.40509674 19.13040796 -19.95226141 20.58250414 -19.5012207 22.03515625 C-18.80947881 24.25971579 -18.10919991 26.48146678 -17.40820312 28.703125 C-16.96563241 30.11963136 -16.52355733 31.53629268 -16.08203125 32.953125 C-15.76804131 33.94690155 -15.76804131 33.94690155 -15.44770813 34.96075439 C-14.58294455 37.76505948 -14 40.04455701 -14 43 C-13.34 43 -12.68 43 -12 43 C-11.90332031 42.08605469 -11.80664062 41.17210937 -11.70703125 40.23046875 C-10.92571369 34.78313916 -9.25683292 29.57493376 -7.6875 24.3125 C-7.37353271 23.24773438 -7.05956543 22.18296875 -6.73608398 21.0859375 C-4.6342182 14.00277442 -2.42368243 6.9802054 0 0 Z " fill="#0435A2" transform="translate(537,907)"/>
<path d="M0 0 C3.23386286 1.61693143 4.89609296 2.62949121 7.390625 5.01171875 C8.32503418 5.89585449 8.32503418 5.89585449 9.27832031 6.79785156 C9.92897461 7.42143555 10.57962891 8.04501953 11.25 8.6875 C12.6033254 9.96833738 13.95748265 11.24829644 15.3125 12.52734375 C15.95574219 13.13562012 16.59898437 13.74389648 17.26171875 14.37060547 C19.78855767 16.73916206 22.39104463 19.01076628 25.015625 21.26953125 C29.41136637 25.1028254 33.69425745 29.06626095 38 33 C36.5682479 38.01113235 34.01554307 39.94469549 30 43 C29.15695312 42.21753906 28.31390625 41.43507813 27.4453125 40.62890625 C26.33865166 39.60665175 25.23187479 38.58452284 24.125 37.5625 C23.56941406 37.04623047 23.01382813 36.52996094 22.44140625 35.99804688 C19.45250685 33.17895264 19.45250685 33.17895264 16 31 C15.73574219 31.59296875 15.47148437 32.1859375 15.19921875 32.796875 C13.95629575 35.08029054 12.69598354 36.47426723 10.8125 38.25 C7.73108945 41.24300943 4.90206414 44.35881701 2.1015625 47.61328125 C-1.16085873 51.31837302 -4.53708659 54.918184 -7.9128418 58.52001953 C-10.16013077 60.93303564 -12.16645089 63.24967633 -14 66 C-19.34660111 64.54183606 -22.33196889 60.8995619 -26 57 C-21.80100473 51.1109363 -17.1967939 45.83406932 -12.1875 40.625 C-10.77390944 39.14011276 -9.36114496 37.65443866 -7.94921875 36.16796875 C-7.27294434 35.45688965 -6.59666992 34.74581055 -5.89990234 34.01318359 C-2.18778136 30.07972823 1.41678633 26.05102212 5 22 C3.5689218 18.60864281 1.82934817 16.76235043 -1 14.4375 C-3.55772463 12.32643684 -5.133135 10.80029749 -7 8 C-4.69 5.36 -2.38 2.72 0 0 Z " fill="#0535A2" transform="translate(254,796)"/>
<path d="M0 0 C3.57399504 3.49072993 6.9106972 7.11083689 10.125 10.9375 C10.59510498 11.49526123 11.06520996 12.05302246 11.54956055 12.62768555 C18.9938667 21.5160956 26.10397782 30.68105111 33 40 C30.36 42.31 27.72 44.62 25 47 C20.87361495 44.93680748 19.49885745 43.44851469 16.75 39.875 C16.04359375 38.96492187 15.3371875 38.05484375 14.609375 37.1171875 C14.07828125 36.41851563 13.5471875 35.71984375 13 35 C8.1407424 36.5133898 5.02981718 39.30335935 1.3125 42.625 C0.06884967 43.71484545 -1.17594813 44.80338286 -2.421875 45.890625 C-3.02966797 46.42236328 -3.63746094 46.95410156 -4.26367188 47.50195312 C-7.36866733 50.18084122 -10.58861585 52.71011045 -13.81640625 55.23828125 C-15.92062 56.93595639 -17.88991406 58.72849883 -19.875 60.5625 C-23 63 -23 63 -24.9609375 62.90625 C-27.61722771 61.72567657 -28.9064887 60.17098485 -30.75 57.9375 C-31.67039063 56.83728516 -31.67039063 56.83728516 -32.609375 55.71484375 C-33.06828125 55.14894531 -33.5271875 54.58304688 -34 54 C-32.44744769 49.9198168 -29.5369802 47.62250277 -26.25 44.9375 C-25.39523071 44.2266626 -25.39523071 44.2266626 -24.52319336 43.50146484 C-19.16025638 39.06825941 -13.68744695 34.77413436 -8.19140625 30.5078125 C-5.0676981 28.0743261 -2.02944639 25.54966981 1 23 C0.41827275 19.0479482 -1.55157741 16.77904947 -4.0625 13.75 C-4.79597656 12.85796875 -5.52945313 11.9659375 -6.28515625 11.046875 C-6.85105469 10.37140625 -7.41695312 9.6959375 -8 9 C-6.1144852 4.71640327 -3.64034299 2.84896408 0 0 Z " fill="#0535A2" transform="translate(221,755)"/>
<path d="M0 0 C0.24006468 7.83399467 -0.41137117 15.50909188 -1.22680664 23.29711914 C-1.43888911 25.32578753 -1.64286403 27.35515418 -1.84570312 29.38476562 C-2.9479171 40.16495593 -2.9479171 40.16495593 -4 45 C-12.55179253 44.61608598 -20.21700683 42.7658437 -28.375 40.25 C-29.50421875 39.91484375 -30.6334375 39.5796875 -31.796875 39.234375 C-39.68225677 36.85252055 -47.35147538 34.0543561 -55 31 C-55 30.34 -55 29.68 -55 29 C-54.4237085 28.70456299 -53.84741699 28.40912598 -53.25366211 28.10473633 C-40.92956769 21.77076174 -28.73505039 15.26495107 -16.71655273 8.36645508 C-2.11173225 0 -2.11173225 0 0 0 Z " fill="#FAFBFD" transform="translate(211,587)"/>
<path d="M0 0 C3.94344347 1.97172173 6.34172859 4.95142746 8 9 C9.00642869 16.45018642 8.0485227 24.74900446 3.59375 30.9609375 C0.33917627 34.23086299 -2.45492153 35.41687416 -7.0625 35.6875 C-12.27592871 35.35422145 -14.55559234 33.87495862 -18 30 C-21.00259798 23.86020481 -21.06968298 16.90867942 -19.27734375 10.359375 C-15.47831343 1.06943851 -9.91307579 -1.7006303 0 0 Z " fill="#FAFBFD" transform="translate(467,916)"/>
<path d="M0 0 C2.69990662 1.79993774 4.5418865 3.083773 6 6 C6.40593124 9.65338118 6.26971604 11.52529977 4.4375 14.75 C1.38027423 17.57205456 -0.92287214 18.28471441 -5 19 C-6.65 18.67 -8.3 18.34 -10 18 C-10.99 12.72 -11.98 7.44 -13 2 C-4.11940299 -0.53731343 -4.11940299 -0.53731343 0 0 Z " fill="#F5F7FB" transform="translate(602,911)"/>
<path d="M0 0 C1.61013585 0.73709784 3.21292391 1.49025857 4.8125 2.25 C5.70582031 2.66765625 6.59914063 3.0853125 7.51953125 3.515625 C10.15254485 5.09128668 11.4649078 6.35964142 13 9 C12.92639149 12.53320839 12.37138247 14.45721024 10.375 17.375 C6.98771334 19.69261719 5.04849104 19.53979881 1 19 C-1.79089239 17.86604723 -4.39779169 16.51401211 -7 15 C-5.45454854 9.52067211 -2.84456788 4.88570819 0 0 Z " fill="#F4F6FA" transform="translate(343,876)"/>
<path d="M0 0 C2.53123541 3.90369098 4.02371275 7.71951157 3.9375 12.375 C2.4778481 16.46202532 2.4778481 16.46202532 0 18 C-3.39227002 18.5052317 -5.21941458 18.50508469 -8.125 16.625 C-10.89520847 12.74670814 -12.39779599 8.46571757 -14 4 C-12.23494565 3.13395466 -10.46271926 2.28251358 -8.6875 1.4375 C-7.70136719 0.96183594 -6.71523437 0.48617187 -5.69921875 -0.00390625 C-3 -1 -3 -1 0 0 Z " fill="#F7F8FB" transform="translate(152,698)"/>
<path d="M0 0 C2.875 1.625 2.875 1.625 5 4 C5.72567326 7.78962702 5.27777899 9.48888666 3.4375 12.875 C1 15 1 15 -2.5 15.5 C-7.86432161 14.73366834 -7.86432161 14.73366834 -10 12 C-10.5659239 7.54334931 -10.82483134 5.26897129 -8.375 1.5 C-5.25991849 -0.4674199 -3.62829011 -0.5923739 0 0 Z " fill="#0637A2" transform="translate(566,951)"/>
<path d="M0 0 C2.48183316 4.10088312 4.01629045 6.98999225 3.9375 11.875 C3 15 3 15 0 17 C-2.375 17.5 -2.375 17.5 -5 17 C-9.21344448 12.98252968 -10.76146207 9.62971788 -12 4 C-10.56570999 3.32645501 -9.12742943 2.66140299 -7.6875 2 C-6.88699219 1.62875 -6.08648437 1.2575 -5.26171875 0.875 C-3 0 -3 0 0 0 Z " fill="#F6F7FB" transform="translate(172,688)"/>
</svg>
